# xmcd CD database file
#
# Track frame offsets:
#	150
#	12278
#	24248
#	35932
#	50162
#	62880
#	73888
#	88275
#	102112
#	115013
#	125385
#	138255
#	151520
#	165374
#	179540
#	192983
#	205825
#	218251
#	232139
#	245739
#	257087
#	271211
#	284516
#	297701
#	309077
#	321203
#
# Disc length: 4466 seconds
#
# Revision: 0
# Processed by: cddbd v1.5.2PL0 Copyright (c) Steve Scherf et al.
# Submitted via: CDex 1.51
#
DISCID=8311701a
DTITLE=Muddy Waters - I'm Your Hoochie Coochie Man
DYEAR=1900
DGENRE=Blues
TTITLE0=Flood
TTITLE1=My Life is Ruined
TTITLE2=She's All Right
TTITLE3=Sad, Sad Day
TTITLE4=Turn the Lamp Down Low (Baby Please Don't Go)
TTITLE5=Loving Man
TTITLE6=Blow Wind Blow
TTITLE7=Mad Love (I Want You to Love Me)
TTITLE8=I'm Your Hoochie Coochie Man
TTITLE9=She's So Pretty
TTITLE10=Just Make Love to Me (I just Want to Make Love to You)
TTITLE11=Oh! Yeah
TTITLE12=I'm Ready
TTITLE13=Smokestack Lightning
TTITLE14=I Don't Know Why
TTITLE15=I'm a Natural Born Lover
TTITLE16=Ooh Wee
TTITLE17=This Pain
TTITLE18=Young Fashioned Ways
TTITLE19=I Want to be Loved
TTITLE20=My Eyes (Keep Me in Trouble)
TTITLE21=Mannish Boy
TTITLE22=I Got to Find My Baby
TTITLE23=Sugar Sweet
TTITLE24=Trouble No More
TTITLE25=Clouds in My Heart
EXTD=
EXTT0=
EXTT1=
EXTT2=
EXTT3=
EXTT4=
EXTT5=
EXTT6=
EXTT7=
EXTT8=
EXTT9=
EXTT10=
EXTT11=
EXTT12=
EXTT13=
EXTT14=
EXTT15=
EXTT16=
EXTT17=
EXTT18=
EXTT19=
EXTT20=
EXTT21=
EXTT22=
EXTT23=
EXTT24=
EXTT25=
PLAYORDER=
